<svg xmlns="http://www.w3.org/2000/svg" xmlns:xlink="http://www.w3.org/1999/xlink" width="1080" zoomAndPan="magnify" viewBox="0 0 810 292.499991" height="390" preserveAspectRatio="xMidYMid meet" version="1.0"><defs><g/><clipPath id="1b018504f8"><rect x="0" width="547" y="0" height="292"/></clipPath><clipPath id="65192b4109"><path d="M 0.609375 243 L 43 243 L 43 286 L 0.609375 286 Z M 0.609375 243 " clip-rule="nonzero"/></clipPath><clipPath id="8b5b764f11"><rect x="0" width="577" y="0" height="292"/></clipPath></defs><g transform="matrix(1, 0, 0, 1, 117, 0)"><g clip-path="url(#8b5b764f11)"><g transform="matrix(1, 0, 0, 1, 12, 0)"><g clip-path="url(#1b018504f8)"><g fill="#810000" fill-opacity="1"><g transform="translate(32.92484, 128.104757)"><g><path d="M 40.09375 -7.109375 C 40.09375 -0.753906 33.894531 2.421875 21.5 2.421875 C 18.8125 2.421875 17.222656 1.046875 16.734375 -1.703125 C 16.242188 -4.453125 16 -8.195312 16 -12.9375 C 16 -22.207031 18.425781 -35.945312 23.28125 -54.15625 C 28.132812 -72.375 33.039062 -86.984375 38 -97.984375 C 26.46875 -97.765625 17.84375 -95.5 12.125 -91.1875 C 10.40625 -89.894531 9.003906 -88.734375 7.921875 -87.703125 C 6.847656 -86.679688 5.90625 -86.171875 5.09375 -86.171875 C 4.28125 -86.171875 3.492188 -86.789062 2.734375 -88.03125 C 1.984375 -89.269531 1.609375 -90.753906 1.609375 -92.484375 C 1.609375 -98.410156 4.253906 -102.992188 9.546875 -106.234375 C 17.085938 -110.753906 27.8125 -113.769531 41.71875 -115.28125 C 47.863281 -115.925781 53.46875 -116.25 58.53125 -116.25 L 58.859375 -116.25 C 59.609375 -116.25 60.65625 -115.816406 62 -114.953125 C 63.351562 -114.097656 64.03125 -112.695312 64.03125 -110.75 C 64.03125 -108.8125 63.675781 -106.628906 62.96875 -104.203125 C 62.269531 -101.773438 61.328125 -99.972656 60.140625 -98.796875 C 59.492188 -93.617188 58.09375 -87.414062 55.9375 -80.1875 C 53.78125 -72.96875 51.519531 -65.265625 49.15625 -57.078125 C 43.113281 -35.953125 40.09375 -19.296875 40.09375 -7.109375 Z M 119.96875 -38.15625 C 121.800781 -38.15625 122.71875 -35.675781 122.71875 -30.71875 C 122.71875 -28.019531 121.585938 -24.757812 119.328125 -20.9375 C 117.066406 -17.113281 114.128906 -13.609375 110.515625 -10.421875 C 106.898438 -7.242188 102.882812 -4.628906 98.46875 -2.578125 C 94.050781 -0.535156 89.847656 0.484375 85.859375 0.484375 C 81.867188 0.484375 78.738281 -0.269531 76.46875 -1.78125 C 74.207031 -3.289062 72.429688 -5.335938 71.140625 -7.921875 C 69.304688 -11.585938 67.796875 -18.566406 66.609375 -28.859375 C 65.429688 -39.148438 64.25 -46.347656 63.0625 -50.453125 C 60.257812 -50.984375 57.804688 -52.082031 55.703125 -53.75 C 53.597656 -55.425781 52.546875 -57.476562 52.546875 -59.90625 C 52.546875 -62.332031 53.648438 -64.082031 55.859375 -65.15625 C 58.066406 -66.238281 60.570312 -66.78125 63.375 -66.78125 C 66.175781 -66.78125 68.65625 -66.132812 70.8125 -64.84375 C 76.632812 -71.09375 81.921875 -79.28125 86.671875 -89.40625 C 88.816406 -94.039062 90.882812 -98.8125 92.875 -103.71875 C 94.875 -108.625 96.953125 -113.664062 99.109375 -118.84375 C 99.648438 -120.132812 100.8125 -120.914062 102.59375 -121.1875 C 104.375 -121.457031 106.71875 -121.59375 109.625 -121.59375 C 112.53125 -121.59375 114.578125 -120.648438 115.765625 -118.765625 C 116.953125 -116.878906 117.546875 -113.804688 117.546875 -109.546875 C 117.546875 -105.285156 116.410156 -100.40625 114.140625 -94.90625 C 111.878906 -89.414062 108.972656 -84.082031 105.421875 -78.90625 C 97.984375 -68.019531 89.414062 -59.828125 79.71875 -54.328125 C 81.4375 -50.765625 82.832031 -46.851562 83.90625 -42.59375 C 84.988281 -38.34375 86.015625 -34.410156 86.984375 -30.796875 C 87.953125 -27.191406 89.054688 -24.175781 90.296875 -21.75 C 91.535156 -19.320312 93.070312 -18.109375 94.90625 -18.109375 C 96.738281 -18.109375 98.921875 -19.160156 101.453125 -21.265625 C 103.992188 -23.367188 106.503906 -25.660156 108.984375 -28.140625 C 111.460938 -30.617188 113.695312 -32.90625 115.6875 -35 C 117.675781 -37.101562 119.101562 -38.15625 119.96875 -38.15625 Z M 119.96875 -38.15625 "/></g></g></g><g fill="#810000" fill-opacity="1"><g transform="translate(143.507595, 128.104757)"><g><path d="M 94.59375 -32.828125 C 94.59375 -23.015625 95.9375 -18.109375 98.625 -18.109375 C 100.25 -18.109375 102.242188 -19.128906 104.609375 -21.171875 C 106.984375 -23.222656 109.351562 -25.460938 111.71875 -27.890625 C 114.09375 -30.316406 116.273438 -32.550781 118.265625 -34.59375 C 120.265625 -36.644531 121.640625 -37.671875 122.390625 -37.671875 C 123.898438 -37.671875 124.65625 -35.835938 124.65625 -32.171875 C 124.65625 -24.628906 120.851562 -17.300781 113.25 -10.1875 C 105.65625 -3.070312 97.546875 0.484375 88.921875 0.484375 C 83.535156 0.585938 79.875 -1.726562 77.9375 -6.46875 C 76.425781 -10.238281 75.671875 -16.273438 75.671875 -24.578125 C 68.453125 -7.867188 57.726562 0.484375 43.5 0.484375 C 33.90625 0.484375 26.273438 -1.910156 20.609375 -6.703125 C 14.953125 -11.503906 12.125 -19.078125 12.125 -29.421875 C 12.125 -31.898438 13.5 -38.445312 16.25 -49.0625 C 19 -59.6875 21.179688 -68.421875 22.796875 -75.265625 C 24.410156 -82.109375 25.21875 -87.523438 25.21875 -91.515625 C 25.21875 -100.242188 23.007812 -104.609375 18.59375 -104.609375 C 17.082031 -104.609375 15.707031 -104.175781 14.46875 -103.3125 C 13.226562 -102.457031 11.988281 -101.539062 10.75 -100.5625 C 9.507812 -99.59375 8.242188 -98.675781 6.953125 -97.8125 C 5.660156 -96.957031 4.175781 -96.53125 2.5 -96.53125 C 0.832031 -96.53125 0 -97.984375 0 -100.890625 C 0 -106.816406 2.75 -111.664062 8.25 -115.4375 C 13.53125 -119.320312 19.832031 -121.265625 27.15625 -121.265625 C 34.488281 -121.265625 39.988281 -118.25 43.65625 -112.21875 C 46.457031 -107.789062 47.859375 -102.800781 47.859375 -97.25 C 47.859375 -91.695312 47.265625 -86.304688 46.078125 -81.078125 C 44.890625 -75.859375 43.625 -70.5 42.28125 -65 C 40.9375 -59.5 39.671875 -53.921875 38.484375 -48.265625 C 37.296875 -42.609375 36.703125 -37.972656 36.703125 -34.359375 C 36.703125 -30.742188 36.863281 -28.34375 37.1875 -27.15625 C 38.695312 -22.414062 42.363281 -20.046875 48.1875 -20.046875 C 55.726562 -20.046875 62.300781 -24.789062 67.90625 -34.28125 C 72.644531 -42.257812 75.988281 -51.957031 77.9375 -63.375 L 78.90625 -70.65625 L 78.25 -104.453125 C 78.25 -109.410156 80.40625 -113.503906 84.71875 -116.734375 C 89.03125 -119.972656 93.5625 -121.535156 98.3125 -121.421875 C 100.25 -121.421875 101.484375 -119.992188 102.015625 -117.140625 C 102.554688 -114.285156 102.828125 -111.132812 102.828125 -107.6875 C 102.828125 -104.238281 102.613281 -100.921875 102.1875 -97.734375 C 101.757812 -94.554688 101.25 -90.890625 100.65625 -86.734375 C 100.0625 -82.585938 99.382812 -78.144531 98.625 -73.40625 C 95.820312 -53.894531 94.476562 -40.367188 94.59375 -32.828125 Z M 94.59375 -32.828125 "/></g></g></g><g fill="#810000" fill-opacity="1"><g transform="translate(246.329501, 128.104757)"><g><path d="M 37.03125 -7.109375 C 37.03125 -0.753906 30.832031 2.421875 18.4375 2.421875 C 15.738281 2.421875 14.144531 1.046875 13.65625 -1.703125 C 13.175781 -4.453125 12.9375 -8.304688 12.9375 -13.265625 C 12.9375 -23.710938 15.035156 -36.644531 19.234375 -52.0625 C 26.242188 -77.5 33.738281 -92.484375 41.71875 -97.015625 C 42.789062 -97.660156 43.972656 -97.984375 45.265625 -97.984375 C 46.566406 -97.984375 47.21875 -95.878906 47.21875 -91.671875 C 47.21875 -87.472656 47 -83.753906 46.5625 -80.515625 C 45.695312 -74.046875 44.160156 -65.691406 41.953125 -55.453125 C 39.742188 -45.210938 38.640625 -39.175781 38.640625 -37.34375 Z M 48.015625 -50.609375 C 48.015625 -52.003906 48.796875 -52.914062 50.359375 -53.34375 C 51.921875 -53.78125 53.890625 -54.1875 56.265625 -54.5625 C 58.640625 -54.945312 61.226562 -55.515625 64.03125 -56.265625 C 66.832031 -57.023438 69.421875 -58.425781 71.796875 -60.46875 C 77.285156 -65.207031 80.03125 -73.128906 80.03125 -84.234375 C 80.03125 -91.347656 77.628906 -96.789062 72.828125 -100.5625 C 68.035156 -104.34375 61.140625 -106.234375 52.140625 -106.234375 C 43.140625 -106.234375 34.707031 -104.34375 26.84375 -100.5625 C 23.925781 -99.164062 21.304688 -97.875 18.984375 -96.6875 C 16.671875 -95.5 14.546875 -94.90625 12.609375 -94.90625 C 10.671875 -94.90625 9.703125 -95.5 9.703125 -96.6875 C 9.703125 -98.519531 11.476562 -101.539062 15.03125 -105.75 C 18.59375 -109.625 24.226562 -113.234375 31.9375 -116.578125 C 39.644531 -119.921875 47.753906 -121.59375 56.265625 -121.59375 C 72.328125 -121.695312 84.832031 -117.921875 93.78125 -110.265625 C 101.539062 -103.585938 105.421875 -94.9375 105.421875 -84.3125 C 105.421875 -73.695312 101.59375 -64.210938 93.9375 -55.859375 C 86.28125 -47.503906 76.710938 -43.328125 65.234375 -43.328125 C 53.753906 -43.328125 48.015625 -45.753906 48.015625 -50.609375 Z M 48.015625 -50.609375 "/></g></g></g><g fill="#810000" fill-opacity="1"><g transform="translate(329.912147, 128.104757)"><g><path d="M 122.5625 -38.15625 C 124.394531 -38.15625 125.3125 -35.675781 125.3125 -30.71875 C 125.3125 -28.019531 124.175781 -24.757812 121.90625 -20.9375 C 119.644531 -17.113281 116.707031 -13.609375 113.09375 -10.421875 C 109.488281 -7.242188 105.472656 -4.628906 101.046875 -2.578125 C 96.628906 -0.535156 92.320312 0.484375 88.125 0.484375 C 81.757812 0.484375 77.363281 -1.101562 74.9375 -4.28125 C 72.507812 -7.457031 71.296875 -12.144531 71.296875 -18.34375 C 71.296875 -24.550781 73.722656 -35.195312 78.578125 -50.28125 C 63.703125 -50.925781 52.867188 -51.25 46.078125 -51.25 L 43.8125 -51.25 C 41.875 -39.289062 40.90625 -26.734375 40.90625 -13.578125 C 40.90625 -7.753906 38.695312 -3.765625 34.28125 -1.609375 C 32.226562 -0.640625 30.257812 0.269531 28.375 1.125 C 26.488281 1.988281 24.46875 2.421875 22.3125 2.421875 C 16.925781 2.421875 14.234375 -2.425781 14.234375 -12.125 C 14.234375 -21.820312 16.441406 -34.269531 20.859375 -49.46875 C 16.117188 -48.9375 11.941406 -48.398438 8.328125 -47.859375 C 4.710938 -47.316406 1.882812 -47.046875 -0.15625 -47.046875 C -2.207031 -47.046875 -3.234375 -47.585938 -3.234375 -48.671875 C -3.234375 -51.898438 -0.59375 -55.1875 4.6875 -58.53125 C 10.070312 -61.875 17.347656 -64.40625 26.515625 -66.125 C 36.648438 -91.894531 49.046875 -109.085938 63.703125 -117.703125 C 69.097656 -120.941406 74.8125 -122.5625 80.84375 -122.5625 C 91.625 -122.445312 99.410156 -119.535156 104.203125 -113.828125 C 109.003906 -108.117188 111.429688 -100.546875 111.484375 -91.109375 C 111.535156 -81.679688 108.648438 -69.421875 102.828125 -54.328125 C 100.671875 -48.503906 98.675781 -43.222656 96.84375 -38.484375 C 95.019531 -33.742188 94.109375 -29.914062 94.109375 -27 C 94.109375 -24.09375 94.320312 -21.882812 94.75 -20.375 C 95.175781 -18.863281 96.203125 -18.109375 97.828125 -18.109375 C 100.734375 -18.109375 107.578125 -23.710938 118.359375 -34.921875 C 120.296875 -37.078125 121.695312 -38.15625 122.5625 -38.15625 Z M 88.125 -86.34375 C 88.125 -95.71875 84.617188 -100.40625 77.609375 -100.40625 C 70.492188 -100.40625 64.375 -97.410156 59.25 -91.421875 C 54.132812 -85.441406 50.175781 -77.441406 47.375 -67.421875 L 84.078125 -66.9375 C 86.773438 -75.5625 88.125 -82.03125 88.125 -86.34375 Z M 88.125 -86.34375 "/></g></g></g><g fill="#810000" fill-opacity="1"><g transform="translate(426.913451, 128.104757)"><g><path d="M 27.328125 -34.109375 C 27.328125 -24.734375 31.316406 -20.046875 39.296875 -20.046875 C 48.023438 -20.046875 53.894531 -23.066406 56.90625 -29.109375 C 57.988281 -31.265625 58.53125 -34.039062 58.53125 -37.4375 C 58.53125 -40.832031 57.722656 -43.984375 56.109375 -46.890625 C 53.410156 -51.523438 48.773438 -56.644531 42.203125 -62.25 C 31.316406 -71.519531 25.875 -81.140625 25.875 -91.109375 C 25.875 -101.078125 29 -108.753906 35.25 -114.140625 C 41.5 -119.535156 48.664062 -122.234375 56.75 -122.234375 C 64.832031 -122.234375 71.242188 -120.1875 75.984375 -116.09375 C 80.734375 -112 83.109375 -105.851562 83.109375 -97.65625 C 83.109375 -92.269531 81.300781 -87.582031 77.6875 -83.59375 C 74.082031 -79.601562 69.3125 -77.125 63.375 -76.15625 C 66.070312 -73.894531 68.769531 -71.578125 71.46875 -69.203125 C 74.050781 -66.828125 76.421875 -64.238281 78.578125 -61.4375 C 83.316406 -55.082031 85.6875 -47.484375 85.6875 -38.640625 C 85.6875 -32.492188 84.257812 -26.941406 81.40625 -21.984375 C 78.550781 -17.023438 74.832031 -12.847656 70.25 -9.453125 C 65.664062 -6.054688 60.519531 -3.441406 54.8125 -1.609375 C 49.101562 0.210938 43.769531 1.125 38.8125 1.125 C 28.238281 1.125 20.046875 -1.296875 14.234375 -6.140625 C 7.441406 -11.640625 4.046875 -19.5625 4.046875 -29.90625 C 4.046875 -36.695312 6.253906 -43.269531 10.671875 -49.625 C 15.085938 -55.988281 19.773438 -59.171875 24.734375 -59.171875 C 28.617188 -59.171875 30.5625 -57.988281 30.5625 -55.625 C 30.5625 -52.175781 30.019531 -48.753906 28.9375 -45.359375 C 27.863281 -41.960938 27.328125 -38.210938 27.328125 -34.109375 Z M 58.6875 -80.03125 C 64.832031 -86.175781 67.90625 -92.59375 67.90625 -99.28125 C 67.90625 -101.320312 66.828125 -103.046875 64.671875 -104.453125 C 62.304688 -105.742188 59.828125 -106.390625 57.234375 -106.390625 C 51.410156 -106.390625 47.207031 -104.503906 44.625 -100.734375 C 45.914062 -96.097656 47.828125 -92.160156 50.359375 -88.921875 C 52.898438 -85.691406 55.675781 -82.726562 58.6875 -80.03125 Z M 58.6875 -80.03125 "/></g></g></g><g fill="#810000" fill-opacity="1"><g transform="translate(0.665336, 249.069148)"><g><path d="M 51.90625 -7.109375 C 51.90625 -0.753906 45.707031 2.421875 33.3125 2.421875 C 30.613281 2.421875 29.019531 1.046875 28.53125 -1.703125 C 28.050781 -4.453125 27.8125 -7.875 27.8125 -11.96875 C 27.8125 -16.0625 28.109375 -20.453125 28.703125 -25.140625 C 29.296875 -29.828125 30.078125 -34.921875 31.046875 -40.421875 C 32.878906 -50.984375 35.492188 -62.378906 38.890625 -74.609375 C 42.285156 -86.847656 45.648438 -96.3125 48.984375 -103 C 42.203125 -102.5625 35.46875 -101.34375 28.78125 -99.34375 C 22.09375 -97.351562 17.347656 -95.953125 14.546875 -95.140625 C 11.742188 -94.335938 9.425781 -93.9375 7.59375 -93.9375 C 5.757812 -93.9375 4.84375 -94.53125 4.84375 -95.71875 C 4.84375 -97.125 5.921875 -99.195312 8.078125 -101.9375 C 10.234375 -104.6875 13.304688 -107.460938 17.296875 -110.265625 C 27.429688 -117.171875 38.695312 -120.675781 51.09375 -120.78125 L 104.28125 -120.296875 C 107.195312 -120.296875 108.65625 -119.164062 108.65625 -116.90625 C 108.65625 -116.257812 108.222656 -115.097656 107.359375 -113.421875 C 106.492188 -111.753906 105.738281 -109.945312 105.09375 -108 C 103.695312 -104.125 100.757812 -102.1875 96.28125 -102.1875 C 91.8125 -102.1875 81.171875 -102.507812 64.359375 -103.15625 C 63.921875 -98.414062 63.054688 -92.351562 61.765625 -84.96875 C 60.472656 -77.582031 59.070312 -69.523438 57.5625 -60.796875 C 53.894531 -38.484375 52.007812 -20.585938 51.90625 -7.109375 Z M 51.90625 -7.109375 "/></g></g></g><g fill="#810000" fill-opacity="1"><g transform="translate(84.248643, 249.069148)"><g><path d="M 94.59375 -32.828125 C 94.59375 -23.015625 95.9375 -18.109375 98.625 -18.109375 C 100.25 -18.109375 102.242188 -19.128906 104.609375 -21.171875 C 106.984375 -23.222656 109.351562 -25.460938 111.71875 -27.890625 C 114.09375 -30.316406 116.273438 -32.550781 118.265625 -34.59375 C 120.265625 -36.644531 121.640625 -37.671875 122.390625 -37.671875 C 123.898438 -37.671875 124.65625 -35.835938 124.65625 -32.171875 C 124.65625 -24.628906 120.851562 -17.300781 113.25 -10.1875 C 105.65625 -3.070312 97.546875 0.484375 88.921875 0.484375 C 83.535156 0.585938 79.875 -1.726562 77.9375 -6.46875 C 76.425781 -10.238281 75.671875 -16.273438 75.671875 -24.578125 C 68.453125 -7.867188 57.726562 0.484375 43.5 0.484375 C 33.90625 0.484375 26.273438 -1.910156 20.609375 -6.703125 C 14.953125 -11.503906 12.125 -19.078125 12.125 -29.421875 C 12.125 -31.898438 13.5 -38.445312 16.25 -49.0625 C 19 -59.6875 21.179688 -68.421875 22.796875 -75.265625 C 24.410156 -82.109375 25.21875 -87.523438 25.21875 -91.515625 C 25.21875 -100.242188 23.007812 -104.609375 18.59375 -104.609375 C 17.082031 -104.609375 15.707031 -104.175781 14.46875 -103.3125 C 13.226562 -102.457031 11.988281 -101.539062 10.75 -100.5625 C 9.507812 -99.59375 8.242188 -98.675781 6.953125 -97.8125 C 5.660156 -96.957031 4.175781 -96.53125 2.5 -96.53125 C 0.832031 -96.53125 0 -97.984375 0 -100.890625 C 0 -106.816406 2.75 -111.664062 8.25 -115.4375 C 13.53125 -119.320312 19.832031 -121.265625 27.15625 -121.265625 C 34.488281 -121.265625 39.988281 -118.25 43.65625 -112.21875 C 46.457031 -107.789062 47.859375 -102.800781 47.859375 -97.25 C 47.859375 -91.695312 47.265625 -86.304688 46.078125 -81.078125 C 44.890625 -75.859375 43.625 -70.5 42.28125 -65 C 40.9375 -59.5 39.671875 -53.921875 38.484375 -48.265625 C 37.296875 -42.609375 36.703125 -37.972656 36.703125 -34.359375 C 36.703125 -30.742188 36.863281 -28.34375 37.1875 -27.15625 C 38.695312 -22.414062 42.363281 -20.046875 48.1875 -20.046875 C 55.726562 -20.046875 62.300781 -24.789062 67.90625 -34.28125 C 72.644531 -42.257812 75.988281 -51.957031 77.9375 -63.375 L 78.90625 -70.65625 L 78.25 -104.453125 C 78.25 -109.410156 80.40625 -113.503906 84.71875 -116.734375 C 89.03125 -119.972656 93.5625 -121.535156 98.3125 -121.421875 C 100.25 -121.421875 101.484375 -119.992188 102.015625 -117.140625 C 102.554688 -114.285156 102.828125 -111.132812 102.828125 -107.6875 C 102.828125 -104.238281 102.613281 -100.921875 102.1875 -97.734375 C 101.757812 -94.554688 101.25 -90.890625 100.65625 -86.734375 C 100.0625 -82.585938 99.382812 -78.144531 98.625 -73.40625 C 95.820312 -53.894531 94.476562 -40.367188 94.59375 -32.828125 Z M 94.59375 -32.828125 "/></g></g></g><g fill="#810000" fill-opacity="1"><g transform="translate(193.537832, 249.069148)"><g><path d="M 93.453125 -26.515625 C 93.453125 -20.910156 94.691406 -18.109375 97.171875 -18.109375 C 99.867188 -18.109375 104.554688 -21.453125 111.234375 -28.140625 C 112.960938 -29.859375 114.796875 -31.957031 116.734375 -34.4375 C 118.679688 -36.914062 120.191406 -38.15625 121.265625 -38.15625 C 123.421875 -38.15625 124.523438 -36.238281 124.578125 -32.40625 C 124.628906 -28.582031 123.523438 -24.757812 121.265625 -20.9375 C 119.003906 -17.113281 116.066406 -13.609375 112.453125 -10.421875 C 108.835938 -7.242188 104.820312 -4.628906 100.40625 -2.578125 C 95.988281 -0.535156 91.675781 0.484375 87.46875 0.484375 C 81.113281 0.484375 76.722656 -1.101562 74.296875 -4.28125 C 71.867188 -7.457031 70.65625 -11.148438 70.65625 -15.359375 C 70.65625 -19.566406 71.035156 -23.71875 71.796875 -27.8125 C 73.085938 -34.28125 76.859375 -46.785156 83.109375 -65.328125 C 86.015625 -74.160156 87.46875 -80.785156 87.46875 -85.203125 C 87.46875 -89.628906 86.628906 -93.132812 84.953125 -95.71875 C 83.285156 -98.300781 80.753906 -99.59375 77.359375 -99.59375 C 73.972656 -99.59375 70.660156 -98.429688 67.421875 -96.109375 C 64.191406 -93.796875 61.175781 -90.753906 58.375 -86.984375 C 53.300781 -80.410156 48.796875 -71.8125 44.859375 -61.1875 C 40.929688 -50.570312 38.375 -41.382812 37.1875 -33.625 C 39.238281 -23.707031 40.265625 -17.242188 40.265625 -14.234375 C 40.265625 -7.972656 38.050781 -3.765625 33.625 -1.609375 C 31.582031 -0.640625 29.617188 0.269531 27.734375 1.125 C 25.847656 1.988281 23.828125 2.421875 21.671875 2.421875 C 16.273438 2.421875 13.578125 -2.722656 13.578125 -13.015625 C 13.578125 -23.304688 16.4375 -43.4375 22.15625 -73.40625 C 24.195312 -84.1875 25.21875 -90.222656 25.21875 -91.515625 C 25.21875 -100.242188 23.007812 -104.609375 18.59375 -104.609375 C 17.082031 -104.609375 15.707031 -104.175781 14.46875 -103.3125 C 13.226562 -102.457031 11.988281 -101.539062 10.75 -100.5625 C 9.507812 -99.59375 8.242188 -98.675781 6.953125 -97.8125 C 5.660156 -96.957031 4.175781 -96.53125 2.5 -96.53125 C 0.832031 -96.53125 0 -97.984375 0 -100.890625 C 0 -106.816406 2.75 -111.664062 8.25 -115.4375 C 13.53125 -119.320312 19.941406 -121.265625 27.484375 -121.265625 C 38.046875 -121.265625 43.972656 -116.09375 45.265625 -105.75 C 45.703125 -102.726562 45.863281 -99.4375 45.75 -95.875 L 45.75 -94.75 C 49.851562 -102.613281 54.785156 -109.050781 60.546875 -114.0625 C 66.316406 -119.082031 73.03125 -121.59375 80.6875 -121.59375 C 91.25 -121.59375 98.898438 -118.789062 103.640625 -113.1875 C 113.554688 -101.21875 113.070312 -81.488281 102.1875 -54 C 100.03125 -48.394531 98.035156 -43.222656 96.203125 -38.484375 C 94.367188 -33.742188 93.453125 -29.753906 93.453125 -26.515625 Z M 93.453125 -26.515625 "/></g></g></g><g fill="#810000" fill-opacity="1"><g transform="translate(294.742912, 249.069148)"><g><path d="M 51.90625 -7.109375 C 51.90625 -0.753906 45.707031 2.421875 33.3125 2.421875 C 30.613281 2.421875 29.019531 1.046875 28.53125 -1.703125 C 28.050781 -4.453125 27.8125 -7.875 27.8125 -11.96875 C 27.8125 -16.0625 28.109375 -20.453125 28.703125 -25.140625 C 29.296875 -29.828125 30.078125 -34.921875 31.046875 -40.421875 C 32.878906 -50.984375 35.492188 -62.378906 38.890625 -74.609375 C 42.285156 -86.847656 45.648438 -96.3125 48.984375 -103 C 42.203125 -102.5625 35.46875 -101.34375 28.78125 -99.34375 C 22.09375 -97.351562 17.347656 -95.953125 14.546875 -95.140625 C 11.742188 -94.335938 9.425781 -93.9375 7.59375 -93.9375 C 5.757812 -93.9375 4.84375 -94.53125 4.84375 -95.71875 C 4.84375 -97.125 5.921875 -99.195312 8.078125 -101.9375 C 10.234375 -104.6875 13.304688 -107.460938 17.296875 -110.265625 C 27.429688 -117.171875 38.695312 -120.675781 51.09375 -120.78125 L 104.28125 -120.296875 C 107.195312 -120.296875 108.65625 -119.164062 108.65625 -116.90625 C 108.65625 -116.257812 108.222656 -115.097656 107.359375 -113.421875 C 106.492188 -111.753906 105.738281 -109.945312 105.09375 -108 C 103.695312 -104.125 100.757812 -102.1875 96.28125 -102.1875 C 91.8125 -102.1875 81.171875 -102.507812 64.359375 -103.15625 C 63.921875 -98.414062 63.054688 -92.351562 61.765625 -84.96875 C 60.472656 -77.582031 59.070312 -69.523438 57.5625 -60.796875 C 53.894531 -38.484375 52.007812 -20.585938 51.90625 -7.109375 Z M 51.90625 -7.109375 "/></g></g></g><g fill="#810000" fill-opacity="1"><g transform="translate(362.158048, 249.069148)"><g><path d="M 122.5625 -38.15625 C 124.394531 -38.15625 125.3125 -35.675781 125.3125 -30.71875 C 125.3125 -28.019531 124.175781 -24.757812 121.90625 -20.9375 C 119.644531 -17.113281 116.707031 -13.609375 113.09375 -10.421875 C 109.488281 -7.242188 105.472656 -4.628906 101.046875 -2.578125 C 96.628906 -0.535156 92.320312 0.484375 88.125 0.484375 C 81.757812 0.484375 77.363281 -1.101562 74.9375 -4.28125 C 72.507812 -7.457031 71.296875 -12.144531 71.296875 -18.34375 C 71.296875 -24.550781 73.722656 -35.195312 78.578125 -50.28125 C 63.703125 -50.925781 52.867188 -51.25 46.078125 -51.25 L 43.8125 -51.25 C 41.875 -39.289062 40.90625 -26.734375 40.90625 -13.578125 C 40.90625 -7.753906 38.695312 -3.765625 34.28125 -1.609375 C 32.226562 -0.640625 30.257812 0.269531 28.375 1.125 C 26.488281 1.988281 24.46875 2.421875 22.3125 2.421875 C 16.925781 2.421875 14.234375 -2.425781 14.234375 -12.125 C 14.234375 -21.820312 16.441406 -34.269531 20.859375 -49.46875 C 16.117188 -48.9375 11.941406 -48.398438 8.328125 -47.859375 C 4.710938 -47.316406 1.882812 -47.046875 -0.15625 -47.046875 C -2.207031 -47.046875 -3.234375 -47.585938 -3.234375 -48.671875 C -3.234375 -51.898438 -0.59375 -55.1875 4.6875 -58.53125 C 10.070312 -61.875 17.347656 -64.40625 26.515625 -66.125 C 36.648438 -91.894531 49.046875 -109.085938 63.703125 -117.703125 C 69.097656 -120.941406 74.8125 -122.5625 80.84375 -122.5625 C 91.625 -122.445312 99.410156 -119.535156 104.203125 -113.828125 C 109.003906 -108.117188 111.429688 -100.546875 111.484375 -91.109375 C 111.535156 -81.679688 108.648438 -69.421875 102.828125 -54.328125 C 100.671875 -48.503906 98.675781 -43.222656 96.84375 -38.484375 C 95.019531 -33.742188 94.109375 -29.914062 94.109375 -27 C 94.109375 -24.09375 94.320312 -21.882812 94.75 -20.375 C 95.175781 -18.863281 96.203125 -18.109375 97.828125 -18.109375 C 100.734375 -18.109375 107.578125 -23.710938 118.359375 -34.921875 C 120.296875 -37.078125 121.695312 -38.15625 122.5625 -38.15625 Z M 88.125 -86.34375 C 88.125 -95.71875 84.617188 -100.40625 77.609375 -100.40625 C 70.492188 -100.40625 64.375 -97.410156 59.25 -91.421875 C 54.132812 -85.441406 50.175781 -77.441406 47.375 -67.421875 L 84.078125 -66.9375 C 86.773438 -75.5625 88.125 -82.03125 88.125 -86.34375 Z M 88.125 -86.34375 "/></g></g></g><g fill="#810000" fill-opacity="1"><g transform="translate(459.159375, 249.069148)"><g><path d="M 27.328125 -34.109375 C 27.328125 -24.734375 31.316406 -20.046875 39.296875 -20.046875 C 48.023438 -20.046875 53.894531 -23.066406 56.90625 -29.109375 C 57.988281 -31.265625 58.53125 -34.039062 58.53125 -37.4375 C 58.53125 -40.832031 57.722656 -43.984375 56.109375 -46.890625 C 53.410156 -51.523438 48.773438 -56.644531 42.203125 -62.25 C 31.316406 -71.519531 25.875 -81.140625 25.875 -91.109375 C 25.875 -101.078125 29 -108.753906 35.25 -114.140625 C 41.5 -119.535156 48.664062 -122.234375 56.75 -122.234375 C 64.832031 -122.234375 71.242188 -120.1875 75.984375 -116.09375 C 80.734375 -112 83.109375 -105.851562 83.109375 -97.65625 C 83.109375 -92.269531 81.300781 -87.582031 77.6875 -83.59375 C 74.082031 -79.601562 69.3125 -77.125 63.375 -76.15625 C 66.070312 -73.894531 68.769531 -71.578125 71.46875 -69.203125 C 74.050781 -66.828125 76.421875 -64.238281 78.578125 -61.4375 C 83.316406 -55.082031 85.6875 -47.484375 85.6875 -38.640625 C 85.6875 -32.492188 84.257812 -26.941406 81.40625 -21.984375 C 78.550781 -17.023438 74.832031 -12.847656 70.25 -9.453125 C 65.664062 -6.054688 60.519531 -3.441406 54.8125 -1.609375 C 49.101562 0.210938 43.769531 1.125 38.8125 1.125 C 28.238281 1.125 20.046875 -1.296875 14.234375 -6.140625 C 7.441406 -11.640625 4.046875 -19.5625 4.046875 -29.90625 C 4.046875 -36.695312 6.253906 -43.269531 10.671875 -49.625 C 15.085938 -55.988281 19.773438 -59.171875 24.734375 -59.171875 C 28.617188 -59.171875 30.5625 -57.988281 30.5625 -55.625 C 30.5625 -52.175781 30.019531 -48.753906 28.9375 -45.359375 C 27.863281 -41.960938 27.328125 -38.210938 27.328125 -34.109375 Z M 58.6875 -80.03125 C 64.832031 -86.175781 67.90625 -92.59375 67.90625 -99.28125 C 67.90625 -101.320312 66.828125 -103.046875 64.671875 -104.453125 C 62.304688 -105.742188 59.828125 -106.390625 57.234375 -106.390625 C 51.410156 -106.390625 47.207031 -104.503906 44.625 -100.734375 C 45.914062 -96.097656 47.828125 -92.160156 50.359375 -88.921875 C 52.898438 -85.691406 55.675781 -82.726562 58.6875 -80.03125 Z M 58.6875 -80.03125 "/></g></g></g></g></g><path stroke-linecap="butt" transform="matrix(0.806888, -0.0000000000000001, 0.0000000000000001, 0.806888, 0.629502, 259.583007)" fill="none" stroke-linejoin="miter" d="M 42.247827 6.500432 L 670.045919 6.500432 " stroke="#810000" stroke-width="13" stroke-opacity="1" stroke-miterlimit="4"/><path fill="#810000" d="M 5.875 264.828125 L 21.609375 249.09375 L 37.34375 264.828125 L 21.609375 280.5625 Z M 5.875 264.828125 " fill-opacity="1" fill-rule="nonzero"/><g clip-path="url(#65192b4109)"><path stroke-linecap="round" transform="matrix(0.806888, -0.0000000000000001, 0.0000000000000001, 0.806888, 0.629502, 259.583007)" fill="none" stroke-linejoin="round" d="M 6.500903 6.500432 L 26.000986 -12.99965 L 45.501068 6.500432 L 26.000986 26.000515 Z M 6.500903 6.500432 " stroke="#810000" stroke-width="13" stroke-opacity="1" stroke-miterlimit="4"/></g><path stroke-linecap="round" transform="matrix(0.806888, -0.0000000000000001, 0.0000000000000001, 0.806888, 0.629502, 259.583007)" fill-opacity="1" fill="#810000" fill-rule="nonzero" stroke-linejoin="round" d="M 705.792843 6.500432 L 686.29276 -12.99965 L 666.792677 6.500432 L 686.29276 26.000515 Z M 705.792843 6.500432 " stroke="#810000" stroke-width="13" stroke-opacity="1" stroke-miterlimit="4"/></g></g></svg>